<svg preserveAspectRatio="none" overflow="visible" style="display: block;" width="29.3333" height="29.3333" viewBox="0 0 29.3333 29.3333" fill="none" xmlns="http://www.w3.org/2000/svg">
<g id="Group">
<g id="Vector">
<path d="M14.6667 0C11.7659 0 8.93023 0.860185 6.51831 2.47178C4.10639 4.08337 2.22653 6.37399 1.11644 9.05398C0.0063549 11.734 -0.284094 14.6829 0.281822 17.528C0.847739 20.373 2.2446 22.9864 4.29577 25.0376C6.34694 27.0887 8.96029 28.4856 11.8053 29.0515C14.6504 29.6174 17.5994 29.327 20.2794 28.2169C22.9593 27.1068 25.25 25.2269 26.8616 22.815C28.4732 20.4031 29.3333 17.5675 29.3333 14.6667C29.3288 10.7782 27.782 7.05037 25.0325 4.30083C22.283 1.55129 18.5551 0.00458729 14.6667 0ZM14.6667 26.6667C12.2933 26.6667 9.97322 25.9629 7.99983 24.6443C6.02644 23.3257 4.48837 21.4516 3.58012 19.2589C2.67187 17.0662 2.43423 14.6534 2.89725 12.3256C3.36027 9.99781 4.50316 7.85961 6.18139 6.18138C7.85962 4.50315 9.99782 3.36027 12.3256 2.89724C14.6534 2.43422 17.0662 2.67186 19.2589 3.58011C21.4516 4.48836 23.3257 6.02643 24.6443 7.99982C25.9629 9.97321 26.6667 12.2933 26.6667 14.6667C26.6628 17.8481 25.3973 20.8981 23.1477 23.1477C20.8981 25.3973 17.8481 26.6628 14.6667 26.6667Z" fill="#E9E9F3" fill-opacity="0.2"/>
<path d="M16.0007 14.1134V6.66536C16.0007 6.31174 15.8602 5.9726 15.6101 5.72256C15.3601 5.47251 15.0209 5.33203 14.6673 5.33203C14.3137 5.33203 13.9746 5.47251 13.7245 5.72256C13.4745 5.9726 13.334 6.31174 13.334 6.66536V14.6654C13.3341 15.019 13.4746 15.358 13.7247 15.608L17.7247 19.608C17.9761 19.8509 18.3129 19.9853 18.6625 19.9823C19.0121 19.9792 19.3465 19.839 19.5937 19.5918C19.841 19.3446 19.9812 19.0102 19.9842 18.6606C19.9873 18.311 19.8529 17.9742 19.61 17.7227L16.0007 14.1134Z" fill="#E9E9F3" fill-opacity="0.2"/>
</g>
</g>
</svg>
